# Created by Kenney (www.kenney.nl)

mtllib health.mtl

g block_hollow

v 0.5 -0.5 -0.5
v 0.3 -0.5 0.3
v 0.5 -0.5 0.5
v -0.5 -0.5 0.5
v -0.3 -0.5 0.3
v -0.3 -0.5 -0.3
v 0.3 -0.5 -0.3
v -0.5 -0.5 -0.5
v -0.5 0.5 -0.5
v -0.5 -0.3 -0.3
v -0.5 -0.3 0.3
v -0.5 0.3 0.3
v -0.5 0.3 -0.3
v -0.5 0.5 0.5
v -0.3 -0.3 -0.5
v -0.3 0.3 -0.5
v 0.3 0.3 -0.5
v 0.3 -0.3 -0.5
v 0.5 0.5 -0.5
v 0.3 -0.3 0.5
v 0.5 0.5 0.5
v -0.3 -0.3 0.5
v 0.3 0.3 0.5
v -0.3 0.3 0.5
v 0.3 -0.3 0.3
v 0.3 0.3 0.3
v 0.3 0.3 -0.3
v 0.3 0.5 -0.3
v 0.3 0.5 0.3
v 0.3 -0.3 -0.3
v 0.5 0.3 -0.3
v 0.5 0.3 0.3
v -0.3 0.3 -0.3
v -0.3 0.3 0.3
v -0.3 -0.3 0.3
v -0.3 -0.3 -0.3
v -0.3 0.5 -0.3
v -0.3 0.5 0.3
v 0.5 -0.3 0.3
v 0.5 -0.3 -0.3

vn 0 -1 0
vn -1 0 0
vn 0 0 -1
vn 0 0 1
vn 1 0 0
vn 0 1 0

vt -0.5 0.5
vt -0.3 -0.3
vt -0.5 -0.5
vt 0.5 -0.5
vt 0.3 -0.3
vt 0.3 0.3
vt -0.3 0.3
vt 0.5 0.5
vt 0.5 -0.3
vt 0.5 0.3
vt -0.3 0.5
vt 0.3 0.5
vt -0.5 0.3
vt -0.5 -0.3
vt 0.3 -0.5
vt -0.3 -0.5

usemtl _defaultMat(Clone)

f 3/3/1 2/2/1 1/1/1
f 2/2/1 3/3/1 4/4/1
f 2/2/1 4/4/1 5/5/1
f 5/5/1 4/4/1 6/6/1
f 7/7/1 1/1/1 2/2/1
f 1/1/1 7/7/1 8/8/1
f 8/8/1 7/7/1 6/6/1
f 8/8/1 6/6/1 4/4/1
f 8/3/2 10/2/2 9/1/2
f 10/2/2 8/3/2 4/4/2
f 10/2/2 4/4/2 11/5/2
f 11/5/2 4/4/2 12/6/2
f 13/7/2 9/1/2 10/2/2
f 9/1/2 13/7/2 14/8/2
f 14/8/2 13/7/2 12/6/2
f 14/8/2 12/6/2 4/4/2
f 8/4/3 15/5/3 1/3/3
f 15/5/3 8/4/3 9/8/3
f 15/5/3 9/8/3 16/6/3
f 16/6/3 9/8/3 17/7/3
f 18/2/3 1/3/3 15/5/3
f 1/3/3 18/2/3 19/1/3
f 19/1/3 18/2/3 17/7/3
f 19/1/3 17/7/3 9/8/3
f 3/4/4 20/5/4 4/3/4
f 20/5/4 3/4/4 21/8/4
f 4/3/4 20/5/4 22/2/4
f 20/5/4 21/8/4 23/6/4
f 23/6/4 21/8/4 24/7/4
f 22/2/4 14/1/4 4/3/4
f 14/1/4 22/2/4 24/7/4
f 14/1/4 24/7/4 21/8/4
f 20/9/2 26/6/2 25/5/2
f 26/6/2 20/9/2 23/10/2
f 26/6/2 28/11/2 27/7/2
f 28/11/2 26/6/2 29/12/2
f 17/13/2 30/2/2 27/7/2
f 30/2/2 17/13/2 18/14/2
f 30/2/2 2/15/2 25/5/2
f 2/15/2 30/2/2 7/16/2
f 32/14/1 27/7/1 31/13/1
f 27/7/1 32/14/1 26/2/1
f 33/6/1 17/11/1 27/7/1
f 17/11/1 33/6/1 16/12/1
f 12/9/1 33/6/1 34/5/1
f 33/6/1 12/9/1 13/10/1
f 26/2/1 24/15/1 34/5/1
f 24/15/1 26/2/1 23/16/1
f 24/13/5 35/2/5 34/7/5
f 35/2/5 24/13/5 22/14/5
f 5/16/5 36/5/5 35/2/5
f 36/5/5 5/16/5 6/15/5
f 15/9/5 33/6/5 36/5/5
f 33/6/5 15/9/5 16/10/5
f 37/12/5 34/7/5 33/6/5
f 34/7/5 37/12/5 38/11/5
f 35/6/6 20/11/6 25/7/6
f 20/11/6 35/6/6 22/12/6
f 10/9/6 35/6/6 36/5/6
f 35/6/6 10/9/6 11/10/6
f 30/2/6 15/15/6 36/5/6
f 15/15/6 30/2/6 18/16/6
f 39/13/6 30/2/6 25/7/6
f 30/2/6 39/13/6 40/14/6
f 19/8/5 31/6/5 1/4/5
f 31/6/5 19/8/5 21/1/5
f 31/6/5 21/1/5 32/7/5
f 32/7/5 21/1/5 39/2/5
f 40/5/5 1/4/5 31/6/5
f 1/4/5 40/5/5 3/3/5
f 3/3/5 40/5/5 39/2/5
f 3/3/5 39/2/5 21/1/5
f 25/2/3 32/13/3 39/14/3
f 32/13/3 25/2/3 26/7/3
f 2/16/3 35/5/3 25/2/3
f 35/5/3 2/16/3 5/15/3
f 12/10/3 35/5/3 11/9/3
f 35/5/3 12/10/3 34/6/3
f 38/12/3 26/7/3 34/6/3
f 26/7/3 38/12/3 29/11/3
f 33/7/4 10/14/4 36/2/4
f 10/14/4 33/7/4 13/13/4
f 6/16/4 30/5/4 36/2/4
f 30/5/4 6/16/4 7/15/4
f 31/10/4 30/5/4 40/9/4
f 30/5/4 31/10/4 27/6/4
f 28/12/4 33/7/4 27/6/4
f 33/7/4 28/12/4 37/11/4
f 19/3/6 28/2/6 21/1/6
f 28/2/6 19/3/6 9/4/6
f 28/2/6 9/4/6 37/5/6
f 37/5/6 9/4/6 38/6/6
f 29/7/6 21/1/6 28/2/6
f 21/1/6 29/7/6 14/8/6
f 14/8/6 29/7/6 38/6/6
f 14/8/6 38/6/6 9/4/6

g cross

v -0.1024519 -0.03745192 -0.1
v -0.02745191 0.09245192 -0.09999999
v -0.2540064 0.05004808 -0.1
v -0.1790064 0.1799519 -0.09999999
v 0.06004809 0.2440064 -0.09999997
v -0.1899519 -0.1890064 -0.1
v 0.1899519 0.1690064 -0.09999997
v 0.1024519 0.01745192 -0.09999999
v 0.02745191 -0.1124519 -0.1
v -0.06004809 -0.2640064 -0.1
v 0.2540064 -0.07004808 -0.09999999
v 0.1790064 -0.1999519 -0.1
v -0.1790064 0.1799519 0.1
v -0.2540064 0.05004805 0.1
v 0.1899519 0.1690063 0.1
v 0.06004809 0.2440064 0.1
v -0.06004809 -0.2640064 0.1
v -0.1899519 -0.1890064 0.1
v 0.2540064 -0.07004812 0.1
v 0.1790064 -0.1999519 0.1
v -0.02745191 0.09245189 0.1
v -0.1024519 -0.03745193 0.1
v 0.02745191 -0.1124519 0.1
v 0.1024519 0.01745187 0.1

vn 0 2.980232E-08 -0.2
vn -0.4330127 0.25 0
vn 0.25 0.4330128 5.960464E-08
vn -0.25 -0.4330128 -5.960464E-08
vn 0.4330127 -0.25 0
vn 0 -2.980232E-08 0.2

vt 0.1024519 -0.03745192
vt 0.02745191 0.09245192
vt 0.2540064 0.05004808
vt 0.1790064 0.1799519
vt -0.02745191 0.09245192
vt -0.1024519 -0.03745192
vt 0.06004809 0.2440064
vt -0.1899519 -0.1890064
vt -0.06004809 0.2440064
vt 0.1899519 -0.1890064
vt -0.1899519 0.1690064
vt -0.1024519 0.01745191
vt -0.02745191 -0.1124519
vt 0.06004809 -0.2640064
vt -0.2540064 -0.07004809
vt -0.1790064 -0.1999519
vt -0.09999999 0.1799519
vt 0.1 0.1799519
vt -0.1 0.05004808
vt 0.1 0.05004806
vt -0.1899519 -0.09999997
vt -0.1899519 0.1000001
vt -0.06004809 -0.09999997
vt -0.06004809 0.1000001
vt 0.06004809 0.1
vt 0.1899519 0.1
vt 0.06004809 -0.1
vt 0.1899519 -0.1
vt -0.1 -0.07004811
vt 0.09999999 -0.07004809
vt -0.1 -0.1999519
vt 0.1 -0.1999519
vt -0.02745191 0.09245189
vt -0.1024519 -0.03745194
vt -0.1790064 0.1799519
vt -0.2540064 0.05004806
vt -0.1899519 -0.1890064
vt 0.06004809 0.2440064
vt -0.06004809 -0.2640064
vt 0.02745191 -0.1124519
vt 0.1024519 0.01745189
vt 0.1899519 0.1690063
vt 0.2540064 -0.07004811
vt 0.1790064 -0.1999519
vt -0.1 -0.03745192
vt 0.1 -0.03745194
vt -0.1 -0.1890064
vt 0.1 -0.1890064
vt 0.1024519 0.1
vt 0.2540064 0.1
vt 0.1024519 -0.1
vt 0.2540064 -0.1
vt -0.1790064 0.1
vt -0.02745191 0.1
vt -0.1790064 -0.1
vt -0.02745191 -0.1
vt -0.1 -0.1124519
vt 0.1 -0.1124519
vt -0.1 -0.2640064
vt 0.1 -0.2640064
vt -0.1000001 0.1690063
vt 0.09999997 0.1690064
vt -0.1 0.01745189
vt 0.09999999 0.01745191
vt -0.1024519 -0.09999999
vt -0.2540064 -0.09999999
vt -0.1024519 0.1
vt -0.2540064 0.1
vt 0.1790064 -0.09999999
vt 0.02745191 -0.09999999
vt 0.1790064 0.1
vt 0.02745191 0.1
vt -0.09999997 0.2440064
vt 0.1000001 0.2440064
vt -0.09999999 0.09245192
vt 0.1 0.09245189

usemtl custom1(Clone)

f 43/19/7 42/18/7 41/17/7
f 42/18/7 43/19/7 44/20/7
f 45/23/7 41/22/7 42/21/7
f 45/23/7 46/24/7 41/22/7
f 47/27/7 46/26/7 45/25/7
f 48/28/7 46/26/7 47/27/7
f 49/29/7 46/26/7 48/28/7
f 46/26/7 49/29/7 50/30/7
f 51/31/7 49/29/7 48/28/7
f 49/29/7 51/31/7 52/32/7
f 43/35/8 53/34/8 44/33/8
f 53/34/8 43/35/8 54/36/8
f 45/39/9 55/38/9 47/37/9
f 55/38/9 45/39/9 56/40/9
f 57/43/10 46/42/10 50/41/10
f 46/42/10 57/43/10 58/44/10
f 60/47/11 51/46/11 59/45/11
f 51/46/11 60/47/11 52/48/11
f 53/51/12 62/50/12 61/49/12
f 62/50/12 53/51/12 54/52/12
f 58/53/12 61/49/12 62/50/12
f 58/53/12 56/54/12 61/49/12
f 57/55/12 56/54/12 58/53/12
f 63/56/12 56/54/12 57/55/12
f 64/57/12 56/54/12 63/56/12
f 56/54/12 64/57/12 55/58/12
f 63/56/12 59/59/12 64/57/12
f 59/59/12 63/56/12 60/60/12
f 46/63/8 62/62/8 41/61/8
f 62/62/8 46/63/8 58/64/8
f 62/67/10 43/66/10 41/65/10
f 43/66/10 62/67/10 54/68/10
f 60/71/10 49/70/10 52/69/10
f 49/70/10 60/71/10 63/72/10
f 57/75/11 49/74/11 63/73/11
f 49/74/11 57/75/11 50/76/11
f 64/79/11 47/78/11 55/77/11
f 47/78/11 64/79/11 48/80/11
f 64/83/9 51/82/9 48/81/9
f 51/82/9 64/83/9 59/84/9
f 53/87/9 42/86/9 44/85/9
f 42/86/9 53/87/9 61/88/9
f 42/91/8 56/90/8 45/89/8
f 56/90/8 42/91/8 61/92/8

